These are just the interviews:										

									

Dwayne_Johnson_720p_20110411_TTL									

									

Matthew_Morrison_FULL_SEGMENT_720p_20110407_TTL								

											 

Matthew_Morrison_SONG_ONLY_720p_20110407_TTL 								

													

and the live song.(includes an MP3). 									

													

Enjoy and please share.											

													

													

													

					

******************************************************************************************************

****************************************************************************************************	

													

													

													

Ellen_Dwayne_Johnson_720p_20110411_TTL.avi
Format                           : AVI
Format/Info                      : Audio Video Interleave
File size                        : 330 MiB
Duration                         : 20mn 40s
Overall bit rate                 : 2 235 Kbps
Movie name                       : Ellen_Dwayne Johnson_720p_20110411_TTL.mpg
Director                         : created.with.SUPER(C).v2010.bld.37
Writing application              : SUPER(C)   

Video
ID                               : 0
Format                           : MPEG-4 Visual
Format profile                   : Simple@L3
Format settings, BVOP            : No
Format settings, QPel            : No
Format settings, GMC             : No warppoints
Format settings, Matrix          : Default (H.263)
Codec ID                         : XVID
Codec ID/Hint                    : XviD
Duration                         : 10mn 20s
Bit rate                         : 4 345 Kbps
Width                            : 1 280 pixels
Height                           : 720 pixels
Display aspect ratio             : 16:9
Frame rate                       : 29.970 fps
Resolution                       : 8 bits
Colorimetry                      : 4:2:0
Scan type                        : Progressive
Bits/(Pixel*Frame)               : 0.157
Stream size                      : 321 MiB (97%)
Writing library                  : XviD 1.1.2 (UTC 2006-11-01)

Audio
ID                               : 1
Format                           : MPEG Audio
Format version                   : Version 2
Format profile                   : Layer 3
Mode                             : Joint stereo
Format_Settings_ModeExtension    : MS Stereo
Codec ID                         : 55
Codec ID/Hint                    : MP3
Duration                         : 20mn 40s
Bit rate mode                    : Constant
Bit rate                         : 112 Kbps
Channel(s)                       : 2 channels
Sampling rate                    : 22.05 KHz
Stream size                      : 8.28 MiB (3%)
Alignment                        : Aligned on interleaves
Interleave, duration             : 26 ms (0.78 video frame)
Interleave, preload duration     : 26 ms

